<svg xmlns="http://www.w3.org/2000/svg" width="66.962" height="22.5" viewBox="0 0 66.962 22.5"><defs><style>.a{fill:#d5000e;}.b{fill:#fff;}</style></defs><g transform="translate(0 0)"><path class="a" d="M139.1,63.618s4.343-4.749,9.835-3.938a9.807,9.807,0,0,1,6.886,4.028h-2.7a9.721,9.721,0,0,0-4.771-2.183C145.851,61.21,143.8,61.323,139.1,63.618Z" transform="translate(-119.826 -54.463)"/><path class="a" d="M103.717,42.4A8.015,8.015,0,0,0,97.1,36.974c-5.446-.9-10.465,2.25-14.2,7.629l4.523-.81s3.871-5.851,9.452-4.861c3.218.585,4.951,2.025,5.6,3.713Z" transform="translate(-76.274 -36.822)"/><path class="a" d="M63.909,72.5s-9.362,1.553-10.352,7.674c-.833,5.064,3.736,6.8,6.706,6.8H82.858l.248-1.148s-14.313.068-20.322,0c-3.2-.045-5.649-1.013-5.649-4.523,0-3.016,2.588-5.311,5.829-6.414Z" transform="translate(-53.457 -64.471)"/><g transform="translate(9.957 11.743)"><path class="b" d="M102.088,97.732H97.7l.383-1.553h3.983a3.336,3.336,0,0,0,1.305-.18h0a1.169,1.169,0,0,0,.653-.833h0a.742.742,0,0,0-.315-.923h0a1.781,1.781,0,0,0-.923-.18h-1.62a2.809,2.809,0,0,1-2-.54h0a1.811,1.811,0,0,1-.428-.855,2.648,2.648,0,0,1,.045-1.1h0a3.769,3.769,0,0,1,.945-1.665h0a2.965,2.965,0,0,1,1.89-.855h0c.27-.022.653-.045,1.17-.045h4.321l-.338,1.575h-3.893a6.449,6.449,0,0,0-1.17.068h0a1.09,1.09,0,0,0-.81.9h0c-.113.428,0,.7.293.833h0a2.346,2.346,0,0,0,1.058.158h1.373a4.994,4.994,0,0,1,1.553.18h0a1.439,1.439,0,0,1,1.013,1.1h0a2.789,2.789,0,0,1-.068,1.35h0a3.532,3.532,0,0,1-.72,1.418h0a3.022,3.022,0,0,1-1.8,1.08h0a12.559,12.559,0,0,1-1.508.067Z" transform="translate(-97.7 -89)"/><path class="b" d="M142.193,89.023h1.845l-1.305,5.221a2.945,2.945,0,0,0-.135.968,1.211,1.211,0,0,0,.2.585h0a1.645,1.645,0,0,0,1.4.54h0a2.681,2.681,0,0,0,1.148-.225,1.772,1.772,0,0,0,.788-.585h0a3.95,3.95,0,0,0,.518-1.305h0L147.955,89H149.8l-1.283,5.131a7.6,7.6,0,0,1-.63,1.688,3.268,3.268,0,0,1-.923,1.058h0a5.217,5.217,0,0,1-3.151.9h0a3.369,3.369,0,0,1-2.723-.878h0a1.8,1.8,0,0,1-.405-1.035,5.434,5.434,0,0,1,.225-1.6h0Z" transform="translate(-131.009 -89)"/><path class="b" d="M184.581,94.771h-2.971l-.765,3.038H179l2.16-8.709h4.366a5.542,5.542,0,0,1,1.665.18h0a1.678,1.678,0,0,1,1.058,1.193h0a2.769,2.769,0,0,1,0,1.485h0a3.944,3.944,0,0,1-.563,1.26,3.457,3.457,0,0,1-.923.968h0a3.1,3.1,0,0,1-.945.473,4.724,4.724,0,0,1-1.238.113Zm-1.958-4.118-.63,2.566h2.521a2.008,2.008,0,0,0,1.013-.2h0a1.936,1.936,0,0,0,.7-1.148h0c.135-.585.045-.968-.338-1.125h0a1.663,1.663,0,0,0-.675-.09h-2.588Z" transform="translate(-160.704 -89.078)"/><path class="b" d="M220.645,97.809H218.8l2.16-8.709h1.845Z" transform="translate(-191.547 -89.078)"/><path class="b" d="M241.741,89.1h3.128l-.383,1.553h-2.431a5.224,5.224,0,0,0-1.4.135,1.909,1.909,0,0,0-.855.518h0a2.036,2.036,0,0,0-.405.518,7.353,7.353,0,0,0-.338.878h4.906l-.383,1.553h-4.906a1.779,1.779,0,0,0,.27,1.553,2.651,2.651,0,0,0,1.8.428h2.318l-.383,1.553h-2.431a11.966,11.966,0,0,1-1.688-.113h0a2.235,2.235,0,0,1-1.62-1.035h0a4.4,4.4,0,0,1-.18-3.241h0a6.017,6.017,0,0,1,2.273-3.533h0a3.893,3.893,0,0,1,1.17-.608,7.112,7.112,0,0,1,1.53-.158Z" transform="translate(-205.306 -89.078)"/><path class="b" d="M270.3,97.809l2.16-8.709h3.691a5.955,5.955,0,0,1,2.07.27h0a2.086,2.086,0,0,1,1.4,1.868h0a6.437,6.437,0,0,1-.2,2.228h0a8.732,8.732,0,0,1-.9,2.228h0a3.927,3.927,0,0,1-1.508,1.575h0a4,4,0,0,1-1.193.428,12.069,12.069,0,0,1-1.845.113H270.3Zm5.469-7.157h-1.845l-1.4,5.6h1.845a2.673,2.673,0,0,0,1.823-.54h0a3.676,3.676,0,0,0,.7-.945,5.384,5.384,0,0,0,.5-1.305h0a3.981,3.981,0,0,0,.135-1.418,1.52,1.52,0,0,0-.315-.945h0a1.831,1.831,0,0,0-1.44-.45Z" transform="translate(-231.457 -89.078)"/><path class="b" d="M316.99,97.809l1.778-7.157H316l.383-1.553h7.494l-.383,1.553h-2.881l-1.778,7.157Z" transform="translate(-266.872 -89.078)"/></g></g></svg>