<svg xmlns="http://www.w3.org/2000/svg" width="71.578" height="24.03" viewBox="0 0 71.578 24.03">
  <g id="组_16642" data-name="组 16642" transform="translate(-53.457 -36.822)">
    <g id="组_16640" data-name="组 16640" transform="translate(53.457 36.822)">
      <path id="路径_23846" data-name="路径 23846" d="M139.1,63.892s4.639-5.071,10.5-4.206a10.474,10.474,0,0,1,7.355,4.3h-2.884a10.382,10.382,0,0,0-5.1-2.331C146.311,61.32,144.123,61.441,139.1,63.892Z" transform="translate(-118.515 -54.115)" fill="#4c5fe8"/>
      <path id="路径_23847" data-name="路径 23847" d="M105.133,42.777a8.561,8.561,0,0,0-7.066-5.793c-5.817-.961-11.177,2.4-15.166,8.148l4.831-.865s4.134-6.249,10.095-5.192c3.437.625,5.288,2.163,5.985,3.966Z" transform="translate(-75.823 -36.822)" fill="#4c5fe8"/>
      <path id="路径_23848" data-name="路径 23848" d="M64.62,72.5s-10,1.658-11.056,8.2c-.889,5.408,3.99,7.259,7.163,7.259H84.857l.264-1.226s-15.287.072-21.7,0C60,86.681,57.385,85.647,57.385,81.9c0-3.221,2.764-5.672,6.225-6.85Z" transform="translate(-53.457 -63.925)" fill="#24dd7f"/>
    </g>
    <g id="组_16641" data-name="组 16641" transform="translate(64.091 49.363)">
      <path id="路径_23849" data-name="路径 23849" d="M102.387,98.326H97.7l.409-1.658h4.254a3.563,3.563,0,0,0,1.394-.192h0a1.248,1.248,0,0,0,.7-.889h0a.792.792,0,0,0-.336-.985h0a1.9,1.9,0,0,0-.985-.192H101.4a3,3,0,0,1-2.139-.577h0a1.934,1.934,0,0,1-.457-.913,2.828,2.828,0,0,1,.048-1.178h0a4.025,4.025,0,0,1,1.009-1.779h0a3.166,3.166,0,0,1,2.019-.913h0c.288-.024.7-.048,1.25-.048h4.615l-.361,1.682h-4.158a6.888,6.888,0,0,0-1.25.072h0a1.164,1.164,0,0,0-.865.961h0c-.12.457,0,.745.312.889h0a2.505,2.505,0,0,0,1.13.168h1.466a5.333,5.333,0,0,1,1.658.192h0a1.537,1.537,0,0,1,1.082,1.178h0a2.978,2.978,0,0,1-.072,1.442h0a3.772,3.772,0,0,1-.769,1.514h0A3.228,3.228,0,0,1,104,98.254h0a13.412,13.412,0,0,1-1.61.072Z" transform="translate(-97.7 -89)" fill="#4c5fe8" stroke="#246fdd" stroke-width="0.097"/>
      <path id="路径_23850" data-name="路径 23850" d="M142.3,89.024h1.971L142.873,94.6a3.145,3.145,0,0,0-.144,1.034,1.293,1.293,0,0,0,.216.625h0a1.757,1.757,0,0,0,1.49.577h0a2.864,2.864,0,0,0,1.226-.24,1.893,1.893,0,0,0,.841-.625h0a4.22,4.22,0,0,0,.553-1.394h0L148.449,89h1.971l-1.37,5.48a8.119,8.119,0,0,1-.673,1.8,3.49,3.49,0,0,1-.985,1.13h0a5.572,5.572,0,0,1-3.365.961h0a3.6,3.6,0,0,1-2.908-.937h0a1.925,1.925,0,0,1-.433-1.106,5.8,5.8,0,0,1,.24-1.707h0Z" transform="translate(-130.351 -89)" fill="#4c5fe8" stroke="#246fdd" stroke-width="0.097"/>
      <path id="路径_23851" data-name="路径 23851" d="M184.961,95.157h-3.173l-.817,3.245H179l2.307-9.3h4.663a5.918,5.918,0,0,1,1.779.192h0a1.792,1.792,0,0,1,1.13,1.274h0a2.957,2.957,0,0,1,0,1.586h0a4.214,4.214,0,0,1-.6,1.346,3.693,3.693,0,0,1-.985,1.034h0a3.31,3.31,0,0,1-1.01.5,5.045,5.045,0,0,1-1.322.12Zm-2.091-4.4L182.2,93.5h2.692a2.145,2.145,0,0,0,1.082-.216h0a2.068,2.068,0,0,0,.745-1.226h0c.144-.625.048-1.034-.361-1.2h0a1.776,1.776,0,0,0-.721-.1H182.87Z" transform="translate(-159.459 -89.076)" fill="#4c5fe8" stroke="#246fdd" stroke-width="0.097"/>
      <path id="路径_23852" data-name="路径 23852" d="M220.771,98.4H218.8l2.307-9.3h1.971Z" transform="translate(-189.693 -89.076)" fill="#4c5fe8" stroke="#246fdd" stroke-width="0.097"/>
      <path id="路径_23853" data-name="路径 23853" d="M242.094,89.1h3.341l-.409,1.658h-2.6a5.579,5.579,0,0,0-1.49.144,2.038,2.038,0,0,0-.913.553h0a2.176,2.176,0,0,0-.433.553,7.861,7.861,0,0,0-.361.937h5.24l-.409,1.658h-5.24a1.9,1.9,0,0,0,.288,1.658,2.832,2.832,0,0,0,1.923.457h2.476l-.409,1.658h-2.6a12.779,12.779,0,0,1-1.8-.12h0a2.388,2.388,0,0,1-1.731-1.106h0a4.7,4.7,0,0,1-.192-3.461h0a6.426,6.426,0,0,1,2.428-3.774h0a4.159,4.159,0,0,1,1.25-.649,7.6,7.6,0,0,1,1.634-.168Z" transform="translate(-203.181 -89.076)" fill="#4c5fe8" stroke="#246fdd" stroke-width="0.097"/>
      <path id="路径_23854" data-name="路径 23854" d="M270.3,98.4l2.307-9.3h3.942a6.361,6.361,0,0,1,2.211.288h0a2.228,2.228,0,0,1,1.49,1.995h0a6.875,6.875,0,0,1-.216,2.38h0a9.325,9.325,0,0,1-.961,2.38h0a4.194,4.194,0,0,1-1.61,1.682h0a4.269,4.269,0,0,1-1.274.457,12.891,12.891,0,0,1-1.971.12H270.3Zm5.841-7.643H274.17l-1.49,5.985h1.971a2.854,2.854,0,0,0,1.947-.577h0a3.927,3.927,0,0,0,.745-1.009,5.748,5.748,0,0,0,.529-1.394h0a4.251,4.251,0,0,0,.144-1.514,1.623,1.623,0,0,0-.336-1.009h0a1.956,1.956,0,0,0-1.538-.481Z" transform="translate(-228.815 -89.076)" fill="#4c5fe8" stroke="#246fdd" stroke-width="0.097"/>
      <path id="路径_23855" data-name="路径 23855" d="M317.058,98.4l1.9-7.643H316l.409-1.658h8L324,90.758h-3.077l-1.9,7.643Z" transform="translate(-263.531 -89.076)" fill="#4c5fe8" stroke="#246fdd" stroke-width="0.097"/>
    </g>
  </g>
</svg>
